<svg width="187" height="31" viewBox="0 0 187 31" fill="none" xmlns="http://www.w3.org/2000/svg">
<g clip-path="url(#clip0_9_12214)">
<path d="M73.7807 6.98828L68.8705 17.424L64.1669 6.98828H59.6641L66.8402 21.7394L62.6285 30.7022H66.953L78.141 6.98828H73.7807Z" fill="#F26346"/>
<path d="M90.8816 7.7673C89.5951 6.98823 88.1298 6.59888 86.4857 6.59888C84.7702 6.59888 83.2452 6.98823 81.9111 7.7673C80.5766 8.54601 79.5346 9.64966 78.784 11.0772C78.0334 12.5054 77.6584 14.1515 77.6584 16.0156C77.6584 17.8804 78.0334 19.5328 78.784 20.972C79.5346 22.4118 80.589 23.5208 81.947 24.2998C83.3049 25.0785 84.8534 25.4679 86.5931 25.4679C88.4987 25.4679 90.1847 24.9961 91.65 24.052C93.1152 23.1082 94.217 21.6567 94.9558 19.6976L91.5963 18.4232C91.0959 19.6976 90.4224 20.6242 89.5773 21.2022C88.7311 21.7806 87.7125 22.0693 86.5216 22.0693C85.5681 22.0693 84.7223 21.8514 83.9841 21.4145C83.2452 20.978 82.6674 20.3056 82.2508 19.3966C81.9288 18.6955 81.7327 17.8624 81.6593 16.9006H94.9558C94.9793 16.7359 94.9917 16.5704 94.9917 16.4053V15.9096C94.9917 14.0924 94.6282 12.4755 93.9014 11.0596C93.1746 9.64367 92.1681 8.54601 90.8816 7.7673ZM81.78 14.104C81.8752 13.5596 82.0127 13.0623 82.1972 12.6174C82.5778 11.6968 83.1319 11.0064 83.859 10.5463C84.5854 10.0862 85.4494 9.85595 86.4498 9.85595C87.8796 9.85595 89.0055 10.3692 89.8271 11.3958C90.3721 12.0765 90.7324 12.9826 90.9162 14.104H81.78Z" fill="#F26346"/>
<path d="M56.1726 7.7673C54.8861 6.98823 53.4208 6.59888 51.7767 6.59888C50.0612 6.59888 48.5363 6.98823 47.2021 7.7673C45.8676 8.54601 44.8256 9.64966 44.075 11.0772C43.3244 12.5054 42.9495 14.1515 42.9495 16.0156C42.9495 17.8804 43.3244 19.5328 44.075 20.972C44.8256 22.4118 45.88 23.5208 47.238 24.2998C48.596 25.0785 50.1444 25.4679 51.8841 25.4679C53.7897 25.4679 55.4757 24.9961 56.941 24.052C58.4063 23.1082 59.508 21.6567 60.2468 19.6976L56.8873 18.4232C56.3869 19.6976 55.7134 20.6242 54.8683 21.2022C54.0221 21.7806 53.0036 22.0693 51.8126 22.0693C50.8591 22.0693 50.0133 21.8514 49.2751 21.4145C48.5363 20.978 47.9584 20.3056 47.5419 19.3966C47.2198 18.6955 47.0237 17.8624 46.9503 16.9006H60.2468C60.2703 16.7359 60.2827 16.5704 60.2827 16.4053V15.9096C60.2827 14.0924 59.9192 12.4755 59.1924 11.0596C58.4656 9.64367 57.4591 8.54601 56.1726 7.7673ZM47.071 14.104C47.1662 13.5596 47.3038 13.0623 47.4882 12.6174C47.8688 11.6968 48.4229 11.0064 49.15 10.5463C49.8764 10.0862 50.7404 9.85595 51.7408 9.85595C53.1706 9.85595 54.2965 10.3692 55.1182 11.3958C55.6631 12.0765 56.0234 12.9826 56.2072 14.104H47.071Z" fill="#F26346"/>
<path d="M15.3437 18.428C16.9743 18.428 18.2962 17.1186 18.2962 15.5033C18.2962 13.888 16.9743 12.5786 15.3437 12.5786C13.713 12.5786 12.3911 13.888 12.3911 15.5033C12.3911 17.1186 13.713 18.428 15.3437 18.428Z" fill="#F26346"/>
<path d="M22.8623 4.50345C22.8623 4.50345 18.4487 9.17612 18.4408 9.18379C17.7908 9.82018 17.396 9.75348 17.387 9.23437L17.3751 0.31632L13.3101 0.304199V9.48924C14.5734 9.3389 16.033 9.60986 17.3886 10.3212V10.3207L18.5761 10.9747C20.0406 11.7812 21.8729 11.4909 23.0088 10.2712L25.7394 7.35341L22.8623 4.50345Z" fill="#F26346"/>
<path d="M4.23925 8.05579C4.23925 8.05579 8.95644 12.4277 8.96419 12.4355C9.60663 13.0794 9.5393 13.4705 9.01525 13.4794L0.012236 13.4911L0 17.5178H9.27254C9.12077 16.2664 9.39431 14.8206 10.1124 13.4778H10.112L10.7721 12.3015C11.5864 10.8508 11.2933 9.03581 10.062 7.91063L7.11636 5.20581L4.23925 8.05579Z" fill="#F26346"/>
<path d="M7.82537 26.5029C7.82537 26.5029 12.239 21.8302 12.2468 21.8225C12.8968 21.1861 13.2916 21.2528 13.3006 21.7719L13.3125 30.69L17.3776 30.7021V21.5171C16.1142 21.6674 14.6546 21.3965 13.299 20.6851V20.6856L12.1115 20.0316C10.647 19.2251 8.81473 19.5154 7.67883 20.7351L4.94824 23.6529L7.82537 26.5029Z" fill="#F26346"/>
<path d="M26.4482 22.9508C26.4482 22.9508 21.731 18.5789 21.7233 18.5711C21.0809 17.9272 21.1482 17.5362 21.6722 17.5273L30.6753 17.5155L30.6875 13.4888H21.4149C21.5667 14.7402 21.2932 16.186 20.575 17.5288H20.5755L19.9153 18.7051C19.1011 20.1558 19.3942 21.9708 20.6255 23.096L23.5711 25.8008L26.4482 22.9508Z" fill="#F26346"/>
<path d="M112.389 14.8832C113.747 14.2457 114.801 13.349 115.552 12.1926C116.302 11.0365 116.678 9.69134 116.678 8.1568C116.678 6.52826 116.314 5.12432 115.587 3.94393C114.86 2.76425 113.818 1.86126 112.46 1.23569C111.102 0.610816 109.517 0.297852 107.707 0.297852H97.8433V25.0787H101.989V15.839H106.103L113.068 25.0787H118.107L110.6 15.5082C111.228 15.3536 111.826 15.1474 112.389 14.8832ZM101.989 4.01469H107.457C109.005 4.01469 110.203 4.36321 111.049 5.0592C111.894 5.75553 112.317 6.78842 112.317 8.1568C112.317 9.05415 112.126 9.81526 111.746 10.4401C111.364 11.0657 110.81 11.5322 110.084 11.8384C109.357 12.1454 108.481 12.2989 107.457 12.2989H101.989V4.01469Z" fill="#475093"/>
<path d="M130.787 7.37794C129.56 6.85903 128.219 6.59888 126.766 6.59888C125.503 6.59888 124.354 6.79355 123.318 7.18326C122.281 7.57262 121.376 8.16898 120.602 8.97092C119.827 9.77358 119.261 10.7646 118.904 11.9446L122.228 13.2545C122.561 12.2632 123.109 11.4905 123.872 10.9357C124.634 10.3815 125.551 10.1038 126.623 10.1038C127.933 10.1038 128.97 10.4344 129.733 11.0951C130.495 11.7559 130.876 12.7708 130.876 14.1396V16.0195C130.768 15.909 130.658 15.8002 130.537 15.697C129.405 14.7296 127.826 14.2455 125.801 14.2455C124.372 14.2455 123.097 14.4701 121.977 14.9183C120.857 15.3668 119.982 16.0219 119.351 16.883C118.719 17.7448 118.404 18.7418 118.404 19.8747C118.404 21.0311 118.713 22.0284 119.333 22.866C119.952 23.7038 120.798 24.3473 121.87 24.7955C122.942 25.2433 124.169 25.4679 125.551 25.4679C127.672 25.4679 129.316 24.9606 130.483 23.9457C130.71 23.7485 130.908 23.5292 131.091 23.2983V25.0785H134.808V13.7502C134.808 12.1692 134.444 10.8417 133.718 9.76759C132.991 8.69387 132.014 7.8972 130.787 7.37794ZM129.786 21.8215C129.012 22.2939 127.993 22.5298 126.731 22.5298C125.468 22.5298 124.443 22.2939 123.657 21.8215C122.871 21.3497 122.478 20.6886 122.478 19.8391C122.478 18.9664 122.871 18.2937 123.657 17.8212C124.443 17.3495 125.468 17.1133 126.731 17.1133C127.993 17.1133 129.012 17.3555 129.786 17.8388C130.56 18.3229 130.948 18.9896 130.948 19.8391C130.948 20.6886 130.56 21.3497 129.786 21.8215Z" fill="#475093"/>
<path d="M151.319 10.0145C150.857 9.25851 150.286 8.5913 149.603 8.01528C148.483 7.07146 147.066 6.59902 145.35 6.59902C143.778 6.59902 142.366 7.00633 141.115 7.8206C139.865 8.63487 138.875 9.75612 138.149 11.1836C137.422 12.6119 137.059 14.2225 137.059 16.0157C137.059 17.8097 137.422 19.4267 138.149 20.8658C138.875 22.3056 139.865 23.4325 141.115 24.2468C142.366 25.0611 143.778 25.468 145.35 25.468C147.066 25.468 148.489 24.9963 149.621 24.0521C150.299 23.4868 150.863 22.8348 151.319 22.1V25.0787H155.25V0.297852H151.319V10.0145ZM148.924 21.2552C148.138 21.7276 147.244 21.9635 146.244 21.9635C144.695 21.9635 143.444 21.4386 142.491 20.3881C141.538 19.3379 141.062 17.8805 141.062 16.0157C141.062 14.8121 141.282 13.7623 141.723 12.8653C142.163 11.9687 142.771 11.29 143.546 10.8295C144.32 10.3694 145.219 10.1391 146.244 10.1391C147.768 10.1391 149.007 10.6587 149.961 11.6969C150.913 12.7358 151.39 14.1749 151.39 16.0157C151.39 17.2433 151.176 18.3054 150.747 19.2021C150.318 20.0994 149.711 20.7834 148.924 21.2552Z" fill="#475093"/>
<path d="M170.017 7.37794C168.79 6.85903 167.449 6.59888 165.996 6.59888C164.733 6.59888 163.584 6.79355 162.548 7.18326C161.511 7.57262 160.606 8.16898 159.831 8.97092C159.057 9.77358 158.491 10.7646 158.134 11.9446L161.458 13.2545C161.791 12.2632 162.339 11.4905 163.102 10.9357C163.864 10.3815 164.781 10.1038 165.853 10.1038C167.163 10.1038 168.2 10.4344 168.963 11.0951C169.725 11.7559 170.106 12.7708 170.106 14.1396V16.0195C169.998 15.909 169.888 15.8002 169.767 15.697C168.635 14.7296 167.056 14.2455 165.031 14.2455C163.602 14.2455 162.327 14.4701 161.207 14.9183C160.087 15.3668 159.212 16.0219 158.581 16.883C157.949 17.7448 157.634 18.7418 157.634 19.8747C157.634 21.0311 157.943 22.0284 158.563 22.866C159.182 23.7038 160.028 24.3473 161.1 24.7955C162.172 25.2433 163.399 25.4679 164.781 25.4679C166.902 25.4679 168.546 24.9606 169.713 23.9457C169.94 23.7485 170.138 23.5292 170.321 23.2983V25.0785H174.038V13.7502C174.038 12.1692 173.674 10.8417 172.948 9.76759C172.221 8.69387 171.244 7.8972 170.017 7.37794ZM169.016 21.8215C168.242 22.2939 167.223 22.5298 165.961 22.5298C164.698 22.5298 163.673 22.2939 162.887 21.8215C162.101 21.3497 161.708 20.6886 161.708 19.8391C161.708 18.9664 162.101 18.2937 162.887 17.8212C163.673 17.3495 164.698 17.1133 165.961 17.1133C167.223 17.1133 168.242 17.3555 169.016 17.8388C169.79 18.3229 170.178 18.9896 170.178 19.8391C170.178 20.6886 169.79 21.3497 169.016 21.8215Z" fill="#475093"/>
<path d="M185.999 6.59888C184.927 6.59888 183.98 6.86467 183.158 7.39555C182.336 7.92642 181.675 8.73541 181.175 9.8204V6.98824H177.208V25.0785H181.175V15.4847C181.175 14.5173 181.341 13.6854 181.675 12.9891C182.008 12.2931 182.479 11.7499 183.087 11.3606C183.694 10.9712 184.379 10.7762 185.142 10.7762H187V6.59888L185.999 6.59888Z" fill="#475093"/>
</g>
<defs>
<clipPath id="clip0_9_12214">
<rect width="187" height="31" fill="white"/>
</clipPath>
</defs>
</svg>
