<svg width="25" height="25" viewBox="0 0 25 25" fill="none" xmlns="http://www.w3.org/2000/svg">
<g clip-path="url(#clip0_133_237)">
<path d="M12.2488 14.6075C13.5506 14.6075 14.6061 13.5521 14.6061 12.2503C14.6061 10.9484 13.5506 9.89307 12.2488 9.89307C10.947 9.89307 9.8916 10.9484 9.8916 12.2503C9.8916 13.5521 10.947 14.6075 12.2488 14.6075Z" fill="#F26346"/>
<path d="M18.2529 3.38447C18.2529 3.38447 14.7292 7.1505 14.7229 7.15668C14.204 7.66959 13.8888 7.61583 13.8816 7.19744L13.8721 0.0097688L10.6267 0V7.40286C11.6353 7.28168 12.8006 7.50008 13.8829 8.07341L14.8309 8.60009C16.0002 9.25015 17.463 9.01615 18.3699 8.03312L20.55 5.68144L18.2529 3.38447Z" fill="#F26346"/>
<path d="M3.38452 6.24768C3.38452 6.24768 7.1506 9.77134 7.15678 9.7776C7.6697 10.2965 7.61594 10.6117 7.19755 10.6189L0.00976894 10.6285L0 13.8738H7.40297C7.28179 12.8652 7.50019 11.6999 8.07352 10.6177L8.60022 9.66959C9.25029 8.50036 9.01628 7.03755 8.03324 6.13068L5.68153 3.95068L3.38452 6.24768Z" fill="#F26346"/>
<path d="M6.2482 21.1155C6.2482 21.1155 9.77191 17.3494 9.77817 17.3433C10.2971 16.8303 10.6123 16.884 10.6195 17.3025L10.629 24.4901L13.8744 24.4999V17.097C12.8658 17.2182 11.7005 16.9998 10.6183 16.4265L9.67017 15.8998C8.50092 15.2498 7.03808 15.4837 6.13121 16.4667L3.95117 18.8184L6.2482 21.1155Z" fill="#F26346"/>
<path d="M21.1154 18.2525C21.1154 18.2525 17.3494 14.7289 17.3432 14.7227C16.8302 14.2037 16.8839 13.8885 17.3024 13.8813L24.4901 13.8718L24.4999 10.6265H17.0969C17.2181 11.6351 16.9997 12.8003 16.4264 13.8826L15.8997 14.8307C15.2496 15.9999 15.4836 17.4627 16.4667 18.3695L18.8184 20.5496L21.1154 18.2525Z" fill="#F26346"/>
</g>
<defs>
<clipPath id="clip0_133_237">
<rect width="24.5" height="24.5" fill="white"/>
</clipPath>
</defs>
</svg>
